<svg width="484" height="272" xmlns="http://www.w3.org/2000/svg" xmlns:xlink="http://www.w3.org/1999/xlink" overflow="hidden"><g><rect x="0" y="0" width="484" height="271.74"/><text fill="#FFFFFF" font-family="Arial,Arial_MSFontService,sans-serif" font-weight="700" font-size="11" transform="matrix(1 0 0 0.999043 5.50405 154)">Haobo Zuo</text><text fill="#FFFFFF" font-family="Arial,Arial_MSFontService,sans-serif" font-weight="700" font-size="7" transform="matrix(1 0 0 0.999043 62.6904 151)">1</text><text fill="#FFFFFF" font-family="Arial,Arial_MSFontService,sans-serif" font-weight="700" font-size="11" transform="matrix(1 0 0 0.999043 66.6918 154)">, Changhong Fu</text><text fill="#FFFFFF" font-family="Arial,Arial_MSFontService,sans-serif" font-weight="700" font-size="7" transform="matrix(1 0 0 0.999043 149.887 151)">2,</text><text fill="#FFFFFF" font-family="Arial,Arial_MSFontService,sans-serif" font-weight="700" font-size="11" transform="matrix(1 0 0 0.999043 155.889 154)">*, Guangze Zheng</text><text fill="#FFFFFF" font-family="Arial,Arial_MSFontService,sans-serif" font-weight="700" font-size="7" transform="matrix(1 0 0 0.999043 248.421 151)">1</text><text fill="#FFFFFF" font-family="Arial,Arial_MSFontService,sans-serif" font-weight="700" font-size="11" transform="matrix(1 0 0 0.999043 252.422 154)">,</text><text fill="#FFFFFF" font-family="Arial,Arial_MSFontService,sans-serif" font-weight="700" font-size="11" transform="matrix(1 0 0 0.999043 258.424 154)">Liangliang</text><text fill="#FFFFFF" font-family="Arial,Arial_MSFontService,sans-serif" font-weight="700" font-size="11" transform="matrix(1 0 0 0.999043 316.111 154)">Yao</text><text fill="#FFFFFF" font-family="Arial,Arial_MSFontService,sans-serif" font-weight="700" font-size="7" transform="matrix(1 0 0 0.999043 336.285 151)">2</text><text fill="#FFFFFF" font-family="Arial,Arial_MSFontService,sans-serif" font-weight="700" font-size="11" transform="matrix(1 0 0 0.999043 340.286 154)">,</text><text fill="#FFFFFF" font-family="Arial,Arial_MSFontService,sans-serif" font-weight="700" font-size="11" transform="matrix(1 0 0 0.999043 346.288 154)">Kunhan Lu</text><text fill="#FFFFFF" font-family="Arial,Arial_MSFontService,sans-serif" font-weight="700" font-size="7" transform="matrix(1 0 0 0.999043 403.474 151)">2</text><text fill="#FFFFFF" font-family="Arial,Arial_MSFontService,sans-serif" font-weight="700" font-size="11" transform="matrix(1 0 0 0.999043 407.476 154)">, and Jia Pan</text><text fill="#FFFFFF" font-family="Arial,Arial_MSFontService,sans-serif" font-weight="700" font-size="7" transform="matrix(1 0 0 0.999043 474.499 151)">1</text><text fill="#F18B1C" font-family="Arial,Arial_MSFontService,sans-serif" font-weight="700" font-size="14" transform="matrix(1 0 0 0.999043 14.8384 107)">DaDiff</text><text fill="#F18B1C" font-family="Arial,Arial_MSFontService,sans-serif" font-weight="700" font-size="14" transform="matrix(1 0 0 0.999043 57.1863 107)">: Domain</text><text fill="#F18B1C" font-family="Arial,Arial_MSFontService,sans-serif" font-weight="700" font-size="14" transform="matrix(1 0 0 0.999043 118.874 107)">-</text><text fill="#F18B1C" font-family="Arial,Arial_MSFontService,sans-serif" font-weight="700" font-size="14" transform="matrix(1 0 0 0.999043 123.709 107)">aware Diffusion Model for Nighttime UAV Tracking</text><text fill="#FFFFFF" font-family="Arial,Arial_MSFontService,sans-serif" font-weight="700" font-size="7" transform="matrix(1 0 0 0.999043 106.87 176)">1</text><text fill="#FFFFFF" font-family="Arial,Arial_MSFontService,sans-serif" font-weight="700" font-size="11" transform="matrix(1 0 0 0.999043 112.872 179)">The University of Hong Kong</text><text fill="#FFFFFF" font-family="Arial,Arial_MSFontService,sans-serif" font-weight="700" font-size="7" transform="matrix(1 0 0 0.999043 282.097 176)">2</text><text fill="#FFFFFF" font-family="Arial,Arial_MSFontService,sans-serif" font-weight="700" font-size="11" transform="matrix(1 0 0 0.999043 288.099 179)">Tongji University</text></g></svg>